/* XPM */
static char * umit_menu_xpm[] = {
"32 32 397 2",
"  	c None",
". 	c #870000",
"+ 	c #8B0000",
"@ 	c #8F0000",
"# 	c #930000",
"$ 	c #960000",
"% 	c #980000",
"& 	c #9A0000",
"* 	c #9C0000",
"= 	c #7C0000",
"- 	c #810000",
"; 	c #8D0000",
"> 	c #970808",
", 	c #AA2020",
"' 	c #B93636",
") 	c #C44545",
"! 	c #C94D4D",
"~ 	c #C74747",
"{ 	c #BC3232",
"] 	c #AB1010",
"^ 	c #A30000",
"/ 	c #A20000",
"( 	c #740000",
"_ 	c #7A0000",
": 	c #8A0303",
"< 	c #A62222",
"[ 	c #C44949",
"} 	c #D86464",
"| 	c #DD6B6B",
"1 	c #DF6D6D",
"2 	c #E17070",
"3 	c #E37272",
"4 	c #E47474",
"5 	c #E57777",
"6 	c #E47676",
"7 	c #D35454",
"8 	c #B41717",
"9 	c #A60000",
"0 	c #A40000",
"a 	c #710000",
"b 	c #780000",
"c 	c #800101",
"d 	c #A12020",
"e 	c #C84C4C",
"f 	c #D45959",
"g 	c #D75B5B",
"h 	c #DA5D5D",
"i 	c #DD6060",
"j 	c #DF6262",
"k 	c #E16464",
"l 	c #E36666",
"m 	c #E46868",
"n 	c #E56B6B",
"o 	c #E66D6D",
"p 	c #E66F6F",
"q 	c #E46F6F",
"r 	c #CA3B3B",
"s 	c #AC0202",
"t 	c #6D0000",
"u 	c #840808",
"v 	c #B53737",
"w 	c #CA4B4B",
"x 	c #CF4D4D",
"y 	c #D34F4F",
"z 	c #D65151",
"A 	c #DA5353",
"B 	c #DD5555",
"C 	c #E05757",
"D 	c #E25959",
"E 	c #E45B5B",
"F 	c #E55D5D",
"G 	c #E65F5F",
"H 	c #E76161",
"I 	c #E66363",
"J 	c #E66666",
"K 	c #E56868",
"L 	c #D54B4B",
"M 	c #AF0505",
"N 	c #A70000",
"O 	c #6C0000",
"P 	c #700000",
"Q 	c #933131",
"R 	c #E0AEAE",
"S 	c #EBBFBF",
"T 	c #EDBFBF",
"U 	c #EEC0C0",
"V 	c #F0C1C1",
"W 	c #F0BDBD",
"X 	c #DB5151",
"Y 	c #DD4B4B",
"Z 	c #E04D4D",
"` 	c #E34F4F",
" .	c #E55151",
"..	c #E75252",
"+.	c #E85454",
"@.	c #E85757",
"#.	c #E85959",
"$.	c #E75B5B",
"%.	c #E65D5D",
"&.	c #E45F5F",
"*.	c #D44444",
"=.	c #AF0202",
"-.	c #811818",
";.	c #F5ECEC",
">.	c #FFFFFF",
",.	c #FEF8F8",
"'.	c #DC4C4C",
").	c #DE4141",
"!.	c #E14343",
"~.	c #E44545",
"{.	c #E74747",
"].	c #E94949",
"^.	c #EA4A4A",
"/.	c #EA4C4C",
"(.	c #EA4E4E",
"_.	c #E85050",
":.	c #E45454",
"<.	c #E25656",
"[.	c #CA2E2E",
"}.	c #AC0000",
"|.	c #6E0000",
"1.	c #B15E5E",
"2.	c #DD4545",
"3.	c #DE3838",
"4.	c #E33A3A",
"5.	c #E63B3B",
"6.	c #E93D3D",
"7.	c #EC3F3F",
"8.	c #ED4141",
"9.	c #ED4242",
"0.	c #EC4444",
"a.	c #EA4646",
"b.	c #E84848",
"c.	c #E54A4A",
"d.	c #E24C4C",
"e.	c #DE4C4C",
"f.	c #B91010",
"g.	c #A80000",
"h.	c #A10000",
"i.	c #720202",
"j.	c #B54444",
"k.	c #D78F8F",
"l.	c #DA9090",
"m.	c #EABCBC",
"n.	c #DD3F3F",
"o.	c #DF3030",
"p.	c #E43232",
"q.	c #E83333",
"r.	c #EC3535",
"s.	c #EF3636",
"t.	c #F03838",
"u.	c #F13A3A",
"v.	c #EF3B3B",
"w.	c #EC3D3D",
"x.	c #E93E3E",
"y.	c #E64040",
"z.	c #E24242",
"A.	c #DF4444",
"B.	c #D03232",
"C.	c #AB0000",
"D.	c #790505",
"E.	c #A61D1D",
"F.	c #AD1E1E",
"G.	c #B41F1F",
"H.	c #D57979",
"I.	c #FEF9F9",
"J.	c #DD3939",
"K.	c #DF2929",
"L.	c #E52A2A",
"M.	c #EA2B2B",
"N.	c #EF2D2D",
"O.	c #F22E2E",
"P.	c #F75F5F",
"Q.	c #FCCBCB",
"R.	c #FBC9C9",
"S.	c #F9B7B7",
"T.	c #EE5858",
"U.	c #E63838",
"V.	c #E23939",
"W.	c #DE3B3B",
"X.	c #DA3C3C",
"Y.	c #B40A0A",
"Z.	c #A50000",
"`.	c #9D0000",
" +	c #780404",
".+	c #A21717",
"++	c #AA1818",
"@+	c #B11919",
"#+	c #D37575",
"$+	c #DC3434",
"%+	c #DF2222",
"&+	c #E52323",
"*+	c #EB2424",
"=+	c #F02626",
"-+	c #F52727",
";+	c #FA6969",
">+	c #FCE5E5",
",+	c #E73737",
"'+	c #E23131",
")+	c #DD3333",
"!+	c #D83434",
"~+	c #C11A1A",
"{+	c #730101",
"]+	c #9B1111",
"^+	c #A51313",
"/+	c #AD1414",
"(+	c #D17272",
"_+	c #DB2F2F",
":+	c #DD1B1B",
"<+	c #E31A1A",
"[+	c #E91B1B",
"}+	c #F01D1D",
"|+	c #F62020",
"1+	c #FC6565",
"2+	c #EA4F4F",
"3+	c #E02929",
"4+	c #DB2B2B",
"5+	c #D62C2C",
"6+	c #C82222",
"7+	c #860606",
"8+	c #A00E0E",
"9+	c #A90F0F",
"0+	c #CF6F6F",
"a+	c #CD1D1D",
"b+	c #CE0202",
"c+	c #D60101",
"d+	c #DE0000",
"e+	c #E70101",
"f+	c #F00707",
"g+	c #F85A5A",
"h+	c #DE2222",
"i+	c #D82424",
"j+	c #D32525",
"k+	c #CB2222",
"l+	c #A60101",
"m+	c #950000",
"n+	c #790000",
"o+	c #850101",
"p+	c #920303",
"q+	c #C16767",
"r+	c #FEFAFA",
"s+	c #C81919",
"t+	c #CA0000",
"u+	c #D20000",
"v+	c #DA0000",
"w+	c #E20000",
"x+	c #E80000",
"y+	c #F14D4D",
"z+	c #E64B4B",
"A+	c #DA1C1C",
"B+	c #D51D1D",
"C+	c #D01E1E",
"D+	c #C91F1F",
"E+	c #A50101",
"F+	c #9B0000",
"G+	c #6F0000",
"H+	c #8A0000",
"I+	c #BD6666",
"J+	c #C51A1A",
"K+	c #C60000",
"L+	c #CE0000",
"M+	c #D50000",
"N+	c #DB0000",
"O+	c #E00000",
"P+	c #EB4D4D",
"Q+	c #E24646",
"R+	c #D51616",
"S+	c #D01717",
"T+	c #CB1818",
"U+	c #C51919",
"V+	c #A30101",
"W+	c #990000",
"X+	c #910000",
"Y+	c #750000",
"Z+	c #7E0000",
"`+	c #BB6666",
" @	c #FEFBFB",
".@	c #C11B1B",
"+@	c #C10000",
"@@	c #C80000",
"#@	c #D30000",
"$@	c #D70000",
"%@	c #E54D4D",
"&@	c #DD4242",
"*@	c #D01111",
"=@	c #CA1212",
"-@	c #C51313",
";@	c #BE1313",
">@	c #9F0000",
",@	c #8E0000",
"'@	c #730000",
")@	c #7B0000",
"!@	c #840000",
"~@	c #B96666",
"{@	c #BD1D1D",
"]@	c #BB0000",
"^@	c #C70000",
"/@	c #CB0000",
"(@	c #DE4D4D",
"_@	c #D63E3E",
":@	c #C90D0D",
"<@	c #C40E0E",
"[@	c #BF0F0F",
"}@	c #B60D0D",
"|@	c #800000",
"1@	c #B76666",
"2@	c #FEFCFC",
"3@	c #B71D1D",
"4@	c #B40000",
"5@	c #BA0000",
"6@	c #BF0000",
"7@	c #C30000",
"8@	c #D84D4D",
"9@	c #C83636",
"0@	c #BD0707",
"a@	c #BD0A0A",
"b@	c #B70B0B",
"c@	c #AA0707",
"d@	c #860000",
"e@	c #B46666",
"f@	c #FEFDFD",
"g@	c #B21F1F",
"h@	c #AD0000",
"i@	c #B20000",
"j@	c #B70000",
"k@	c #BC0000",
"l@	c #D14D4D",
"m@	c #C13535",
"n@	c #AB0303",
"o@	c #A90505",
"p@	c #9A0101",
"q@	c #830000",
"r@	c #770000",
"s@	c #AF6262",
"t@	c #AC1F1F",
"u@	c #AA0000",
"v@	c #AE0000",
"w@	c #B10000",
"x@	c #CB4D4D",
"y@	c #BA3232",
"z@	c #920000",
"A@	c #8C0000",
"B@	c #720000",
"C@	c #A65656",
"D@	c #FFFEFE",
"E@	c #A82424",
"F@	c #9E0000",
"G@	c #A90000",
"H@	c #C75454",
"I@	c #AF2727",
"J@	c #850000",
"K@	c #7F0000",
"L@	c #933C3C",
"M@	c #B24B4B",
"N@	c #A00000",
"O@	c #CF7B7B",
"P@	c #FCF8F8",
"Q@	c #A01212",
"R@	c #900000",
"S@	c #791515",
"T@	c #FBF7F7",
"U@	c #E0BABA",
"V@	c #900404",
"W@	c #940000",
"X@	c #970000",
"Y@	c #A01313",
"Z@	c #F2DFDF",
"`@	c #EFDBDB",
" #	c #880000",
".#	c #6C0101",
"+#	c #DDC4C4",
"@#	c #E0BBBB",
"##	c #B15555",
"$#	c #A93E3E",
"%#	c #BA6262",
"&#	c #EDD5D5",
"*#	c #CD9292",
"=#	c #9E5757",
"-#	c #972B2B",
";#	c #6D0202",
">#	c #CEABAB",
",#	c #B97A7A",
"'#	c #710808",
")#	c #BD8D8D",
"!#	c #FAF6F6",
"~#	c #F4ECEC",
"{#	c #AD6B6B",
"]#	c #730202",
"^#	c #7D1D1D",
"/#	c #A86767",
"(#	c #C59A9A",
"_#	c #D4B4B4",
":#	c #D8BBBB",
"<#	c #D2B1B1",
"[#	c #C09292",
"}#	c #A05A5A",
"|#	c #761111",
"                        . + @ # $ % & *                         ",
"                  = - . ; > , ' ) ! ~ { ] ^ /                   ",
"              ( _ - : < [ } | 1 2 3 4 5 6 7 8 9 0               ",
"            a b c d e f g h i j k l m n o p q r s 9             ",
"          t ( u v w x y z A B C D E F G H I J K L M N           ",
"        O P Q R S T U V W X Y Z `  ...+.@.#.$.%.&.*.=.N         ",
"      O O -.;.>.>.>.>.>.,.'.).!.~.{.].^./.(._...:.<.[.}.0       ",
"    O O |.1.>.>.>.>.>.>.,.2.3.4.5.6.7.8.9.0.a.b.c.d.e.f.g.h.    ",
"    O O i.j.k.l.m.>.>.>.,.n.o.p.q.r.s.t.u.v.w.x.y.z.A.B.C.^     ",
"  O O O D.E.F.G.H.>.>.>.I.J.K.L.M.N.O.P.Q.R.S.T.U.V.W.X.Y.Z.`.  ",
"  O O O  +.+++@+#+>.>.>.I.$+%+&+*+=+-+;+>.>.>.>+,+'+)+!+~+9 `.  ",
"  O O O {+]+^+/+(+>.>.>.I._+:+<+[+}+|+1+>.>.>.>.2+3+4+5+6+N `.  ",
"O O O O a 7+8+9+0+>.>.>.I.a+b+c+d+e+f+g+>.>.>.>._.h+i+j+k+l+`.m+",
"O O O O P n+o+p+q+>.>.>.r+s+t+u+v+w+x+y+>.>.>.>.z+A+B+C+D+E+F+# ",
"O O O O G+b - H+I+>.>.>.r+J+K+L+M+N+O+P+>.>.>.>.Q+R+S+T+U+V+W+X+",
"O O O O |.Y+Z+. `+>.>.>. @.@+@@@L+#@$@%@>.>.>.>.&@*@=@-@;@>@$ ,@",
"O O O O O '@)@!@~@>.>.>. @{@]@+@^@/@L+(@>.>.>.>._@:@<@[@}@F+# H+",
"O O O O O G+b |@1@>.>.>.2@3@4@5@6@7@K+8@>.>.>.>.9@0@a@b@c@$ @ d@",
"O O O O O t ( = e@>.>.>.f@g@h@i@j@5@k@l@>.>.>.>.m@}.n@o@p@X+H+q@",
"O O O O O O G+r@s@>.>.>.f@t@9 u@v@w@4@x@>.>.>.>.y@0 >@W+z@A@!@Z+",
"  O O O O O O B@C@>.>.>.D@E@F@/ 9 G@u@H@>.>.>.D@I@`.% z@A@J@K@  ",
"  O O O O O O t L@>.>.>.>.M@$ & `.N@h.O@>.>.>.P@Q@m+R@+ J@K@n+  ",
"  O O O O O O O S@T@>.>.>.U@V@X+W@X@Y@Z@>.>.>.`@X+;  #q@Z+b (   ",
"    O O O O O O .#+#>.>.>.>.@###$#%#&#>.>.>.>.*# #!@|@= r@a     ",
"    O O O O O O O =#>.>.>.>.>.>.>.>.>.>.>.>.P@-#K@= b ( G+O     ",
"      O O O O O O ;#>#>.>.>.>.>.>.>.>.>.>.>.,#n+r@( P t O       ",
"        O O O O O O '#)#!#>.>.>.>.>.>.>.~#{#]#P |.t O O         ",
"          O O O O O O O ^#/#(#_#:#<#[#}#|#t O O O O O           ",
"            O O O O O O O O O O O O O O O O O O O O             ",
"              O O O O O O O O O O O O O O O O O O               ",
"                  O O O O O O O O O O O O O O                   ",
"                        O O O O O O O O                         "};
